<svg xmlns="http://www.w3.org/2000/svg" width="149.5" height="32" viewBox="0 0 254.25 36"
    className="LoginForm_Logo__38qxg">
    <g id="logo" data-name="PrepaidPlus" transform="translate(-408.75 271)">
        <g id="circleadd" transform="translate(627 -278)">
            <path id="path1"
                d="M16.2,9.113h3.488v7.2h7.2V19.8h-7.2V27H16.2V19.8H9V16.313h7.2Zm1.8-6.3A15.188,15.188,0,1,0,33.188,18,15.124,15.124,0,0,0,18,2.813ZM18,0A18,18,0,1,1,0,18,18.053,18.053,0,0,1,18,0Z"
                transform="translate(0 7)" fill="#002060" />
        </g>
        <path id="Path_2" data-name="Path 2"
            d="M17.086-13.383H10.711v9.727A4.543,4.543,0,0,1,9.727-.492,3.22,3.22,0,0,1,7.242.586,3.244,3.244,0,0,1,4.711-.48,4.531,4.531,0,0,1,3.75-3.609V-30.094A4.331,4.331,0,0,1,4.8-33.375a4.8,4.8,0,0,1,3.352-.984h8.93a23.4,23.4,0,0,1,6.094.609A9.074,9.074,0,0,1,26.824-31.8a8.771,8.771,0,0,1,2.332,3.328,11.715,11.715,0,0,1,.8,4.43q0,5.25-3.234,7.957T17.086-13.383ZM15.4-29.133H10.711v10.5H15.4a14,14,0,0,0,4.113-.516,4.794,4.794,0,0,0,2.52-1.687,5.036,5.036,0,0,0,.867-3.07,5.206,5.206,0,0,0-1.336-3.7Q20.063-29.133,15.4-29.133ZM45.117-14.7H42.68V-3.656a4.587,4.587,0,0,1-.961,3.211A3.269,3.269,0,0,1,39.211.586,3.2,3.2,0,0,1,36.633-.492a4.777,4.777,0,0,1-.914-3.164V-30.094a4.47,4.47,0,0,1,1.008-3.258,4.47,4.47,0,0,1,3.258-1.008H51.3a34.385,34.385,0,0,1,4.008.2,10.076,10.076,0,0,1,3,.809,8.687,8.687,0,0,1,2.859,1.945,8.518,8.518,0,0,1,1.887,2.941,9.805,9.805,0,0,1,.645,3.551,8.58,8.58,0,0,1-2.168,6.141,12.451,12.451,0,0,1-6.574,3.258A12.725,12.725,0,0,1,58.5-12.609a29.474,29.474,0,0,1,3.012,4.09,30.3,30.3,0,0,1,2.063,3.914,7.732,7.732,0,0,1,.738,2.4,2.455,2.455,0,0,1-.434,1.348A3.04,3.04,0,0,1,62.7.2a3.732,3.732,0,0,1-1.734.387A3.38,3.38,0,0,1,58.992.035a5.3,5.3,0,0,1-1.371-1.395q-.574-.844-1.559-2.484L53.273-8.484a25.534,25.534,0,0,0-2.684-3.891,6.623,6.623,0,0,0-2.4-1.828A8.259,8.259,0,0,0,45.117-14.7ZM49.1-29.133H42.68v9.445h6.234a17.466,17.466,0,0,0,4.219-.434A4.948,4.948,0,0,0,55.746-21.6a4.244,4.244,0,0,0,.9-2.871,4.436,4.436,0,0,0-.727-2.52,4.391,4.391,0,0,0-2.016-1.629A14.5,14.5,0,0,0,49.1-29.133Zm43.828.141H77.25v8.438H91.688a3.437,3.437,0,0,1,2.379.715,2.43,2.43,0,0,1,.785,1.887,2.522,2.522,0,0,1-.773,1.91,3.357,3.357,0,0,1-2.391.738H77.25v9.773H93.469a3.549,3.549,0,0,1,2.473.762,2.616,2.616,0,0,1,.832,2.027,2.561,2.561,0,0,1-.832,1.98A3.549,3.549,0,0,1,93.469,0H74.555a4.464,4.464,0,0,1-3.27-1.008,4.5,4.5,0,0,1-1-3.258V-30.094a5.792,5.792,0,0,1,.445-2.449,2.765,2.765,0,0,1,1.395-1.383,5.862,5.862,0,0,1,2.426-.434H92.93a3.57,3.57,0,0,1,2.473.738,2.5,2.5,0,0,1,.809,1.934A2.523,2.523,0,0,1,95.4-29.73,3.57,3.57,0,0,1,92.93-28.992Z"
            transform="translate(405 -236)" fill="#002060" />
        <path id="Path_3" data-name="Path 3"
            d="M17.086-13.383H10.711v9.727A4.543,4.543,0,0,1,9.727-.492,3.22,3.22,0,0,1,7.242.586,3.244,3.244,0,0,1,4.711-.48,4.531,4.531,0,0,1,3.75-3.609V-30.094A4.331,4.331,0,0,1,4.8-33.375a4.8,4.8,0,0,1,3.352-.984h8.93a23.4,23.4,0,0,1,6.094.609A9.074,9.074,0,0,1,26.824-31.8a8.771,8.771,0,0,1,2.332,3.328,11.715,11.715,0,0,1,.8,4.43q0,5.25-3.234,7.957T17.086-13.383ZM15.4-29.133H10.711v10.5H15.4a14,14,0,0,0,4.113-.516,4.794,4.794,0,0,0,2.52-1.687,5.036,5.036,0,0,0,.867-3.07,5.206,5.206,0,0,0-1.336-3.7Q20.063-29.133,15.4-29.133ZM57.75-3.891,56.109-8.2H42.141L40.5-3.8a15.424,15.424,0,0,1-1.641,3.48,2.608,2.608,0,0,1-2.227.9,3.265,3.265,0,0,1-2.32-.961A2.943,2.943,0,0,1,33.3-2.555a4.862,4.862,0,0,1,.234-1.453q.234-.75.773-2.086L43.1-28.406q.375-.961.9-2.309a11.673,11.673,0,0,1,1.125-2.238,4.571,4.571,0,0,1,1.57-1.441,4.814,4.814,0,0,1,2.4-.551,4.866,4.866,0,0,1,2.426.551,4.664,4.664,0,0,1,1.57,1.418,9.945,9.945,0,0,1,1.008,1.863q.41,1,1.043,2.66L64.125-6.281A11.145,11.145,0,0,1,65.18-2.6a3.046,3.046,0,0,1-1,2.191,3.274,3.274,0,0,1-2.4,1A3.115,3.115,0,0,1,60.375.293a2.88,2.88,0,0,1-.984-.8,7.332,7.332,0,0,1-.855-1.547Q58.078-3.094,57.75-3.891ZM43.969-13.43H54.234l-5.18-14.18Zm26.6,9.773v-27.07a4.562,4.562,0,0,1,.961-3.164,3.207,3.207,0,0,1,2.484-1.055A3.316,3.316,0,0,1,76.559-33.9a4.518,4.518,0,0,1,.973,3.176v27.07a4.564,4.564,0,0,1-.973,3.188A3.3,3.3,0,0,1,74.016.586,3.2,3.2,0,0,1,71.543-.48,4.571,4.571,0,0,1,70.57-3.656Zm19.055-30.7H98.7a24.455,24.455,0,0,1,6.07.656,11.16,11.16,0,0,1,4.594,2.461q5.367,4.594,5.367,13.969a27.408,27.408,0,0,1-.539,5.648,16.677,16.677,0,0,1-1.664,4.605,14.312,14.312,0,0,1-2.883,3.668,11.925,11.925,0,0,1-3.023,1.992A13.692,13.692,0,0,1,103.09-.3a26.853,26.853,0,0,1-4.254.3h-9.07a5.677,5.677,0,0,1-2.859-.574,2.67,2.67,0,0,1-1.254-1.617A10.278,10.278,0,0,1,85.359-4.9v-25.2a4.47,4.47,0,0,1,1.008-3.258A4.47,4.47,0,0,1,89.625-34.359Zm2.7,5.508v23.32h5.273q1.734,0,2.719-.094a8.5,8.5,0,0,0,2.039-.469,5.555,5.555,0,0,0,1.828-1.055q3.492-2.953,3.492-10.172,0-5.086-1.535-7.617a6.835,6.835,0,0,0-3.785-3.223,18.672,18.672,0,0,0-5.437-.691Z"
            transform="translate(504 -236)" fill="#ffc000" />
    </g>
</svg>